<svg version="1.1" id="Layer_1" xmlns="http://www.w3.org/2000/svg" xmlns:xlink="http://www.w3.org/1999/xlink" x="0px" y="0px"
	 width="100%" viewBox="0 0 2685 2684" enable-background="new 0 0 2685 2684" xml:space="preserve">
<path fill="#FFFFFF" opacity="1.000000" stroke="none" 
	d="
M1504.000000,2686.000000 
	C1002.666687,2686.000000 502.333344,2686.000000 2.000000,2686.000000 
	C2.000000,1791.333374 2.000000,896.666687 2.000000,2.000000 
	C897.333313,2.000000 1792.666626,2.000000 2688.000000,2.000000 
	C2688.000000,896.666687 2688.000000,1791.333374 2688.000000,2686.000000 
	C2293.666748,2686.000000 1899.333374,2686.000000 1504.000000,2686.000000 
M2195.854736,797.252563 
	C2195.337402,794.308228 2194.715820,791.377991 2194.318115,788.417603 
	C2188.193604,742.828064 2177.454590,698.258789 2163.636475,654.470459 
	C2146.768555,601.017517 2124.616943,549.792480 2097.621338,500.598389 
	C2064.628662,440.476013 2025.240479,384.927002 1978.833374,334.559448 
	C1957.656250,311.575134 1934.768555,290.103821 1911.897461,268.759583 
	C1884.359131,243.059769 1854.165161,220.574402 1822.963257,199.526489 
	C1782.316772,172.107407 1739.642334,148.320953 1694.910034,128.112396 
	C1648.989502,107.367020 1601.637451,90.824615 1552.894897,78.355019 
	C1520.067627,69.957008 1486.800049,63.656353 1453.099976,59.481117 
	C1420.766846,55.475239 1388.408447,52.299179 1355.828491,52.328690 
	C1333.899170,52.348549 1311.932129,52.600082 1290.052246,53.915634 
	C1265.213501,55.409081 1240.310913,57.197002 1215.692017,60.670380 
	C1178.846924,65.868729 1142.461182,73.676315 1106.577881,83.763298 
	C1062.922974,96.034897 1020.484497,111.607071 979.341858,130.563263 
	C931.766663,152.483185 886.498047,178.515579 843.674438,208.764374 
	C810.190979,232.415680 778.228577,257.952362 748.548950,286.213043 
	C709.183777,323.696045 672.822205,363.872833 640.827881,407.945404 
	C600.158142,463.968536 566.180908,523.695557 539.837769,587.738037 
	C510.590027,658.841919 490.965485,732.425903 481.467407,808.806458 
	C477.155212,843.483521 475.463898,878.255188 474.377014,913.092346 
	C474.036377,924.010376 475.120819,934.983948 475.769684,945.919250 
	C477.008484,966.797668 478.126190,987.688965 479.795715,1008.534729 
	C482.505310,1042.366699 488.687866,1075.670776 496.097534,1108.749268 
	C509.526489,1168.698975 529.369446,1226.502319 555.346008,1282.137329 
	C576.654846,1327.775391 601.820435,1371.211304 630.789185,1412.493286 
	C660.702942,1455.121826 694.198669,1494.672363 730.966736,1531.453125 
	C743.416077,1543.906738 756.832703,1555.398315 769.888489,1567.239868 
	C796.816040,1591.662842 825.842346,1613.415405 855.882324,1633.790894 
	C902.025757,1665.089233 950.886597,1691.499756 1002.247498,1713.184204 
	C1059.110596,1737.191650 1117.846802,1755.103271 1178.600220,1766.233643 
	C1191.579224,1768.611572 1204.583740,1770.850952 1218.245972,1773.272827 
	C1218.245972,1777.716064 1218.245850,1781.666138 1218.245850,1785.616333 
	C1218.245850,1872.611694 1218.152832,1959.607300 1218.335815,2046.602173 
	C1218.366943,2061.390381 1217.789551,2064.369385 1201.005371,2064.335938 
	C1101.011230,2064.136475 1001.016296,2064.227051 901.021606,2064.251465 
	C889.156860,2064.254150 886.279236,2067.127197 886.261353,2078.929443 
	C886.215881,2108.927734 886.245972,2138.926270 886.245972,2168.924561 
	C886.245972,2209.255859 886.215088,2249.586914 886.264587,2289.918213 
	C886.279968,2302.454834 889.629150,2305.653564 902.350220,2305.759766 
	C904.349976,2305.776611 906.350037,2305.762695 908.349915,2305.762695 
	C1006.011414,2305.762695 1103.672852,2305.762451 1201.334351,2305.764404 
	C1204.000732,2305.764404 1206.686279,2305.589844 1209.329468,2305.844727 
	C1215.070435,2306.398438 1217.606567,2308.936035 1218.163086,2314.684326 
	C1218.418823,2317.327393 1218.244141,2320.013184 1218.244141,2322.679688 
	C1218.246216,2422.007812 1218.238647,2521.335693 1218.253784,2620.663818 
	C1218.255981,2635.143066 1220.820557,2637.757080 1234.842651,2637.758789 
	C1304.172241,2637.767334 1373.501953,2637.763184 1442.831543,2637.760986 
	C1445.164673,2637.760986 1447.518799,2637.937500 1449.826782,2637.690674 
	C1455.900757,2637.041260 1459.303955,2633.446533 1459.712036,2627.301270 
	C1459.888428,2624.646240 1459.753662,2621.970215 1459.753662,2619.303711 
	C1459.754272,2520.975586 1459.753174,2422.647461 1459.758545,2324.319336 
	C1459.758667,2321.320801 1459.590820,2318.297119 1459.908691,2315.328857 
	C1460.542114,2309.414062 1463.647583,2306.357178 1469.480957,2305.848877 
	C1472.459351,2305.589355 1475.476440,2305.764893 1478.476074,2305.764648 
	C1576.804199,2305.762451 1675.132324,2305.762695 1773.460449,2305.761475 
	C1776.126953,2305.761475 1778.809937,2305.934326 1781.456543,2305.700684 
	C1787.824707,2305.138184 1791.592407,2301.272705 1792.170898,2294.777100 
	C1792.377319,2292.460938 1792.246338,2290.113770 1792.246338,2287.780762 
	C1792.248779,2219.451172 1792.251465,2151.121338 1792.246216,2082.791748 
	C1792.244873,2065.871582 1790.560791,2064.238281 1773.205933,2064.237793 
	C1673.544556,2064.236084 1573.883301,2064.247314 1474.221924,2064.223145 
	C1462.341919,2064.220459 1459.791870,2061.881348 1459.784912,2050.426025 
	C1459.730835,1960.430786 1459.747437,1870.435547 1459.794922,1780.440308 
	C1459.796265,1777.916626 1460.384521,1775.393311 1460.710327,1772.780029 
	C1468.686523,1771.659302 1475.956177,1770.887817 1483.130615,1769.589600 
	C1531.930542,1760.759277 1579.900757,1748.854492 1626.745117,1732.316162 
	C1684.739990,1711.841309 1739.835205,1685.515503 1792.208984,1653.324829 
	C1864.478638,1608.905151 1928.685425,1554.909790 1985.165527,1491.666992 
	C2016.935303,1456.093262 2045.527344,1418.133301 2070.985107,1377.794678 
	C2103.612793,1326.095337 2130.488281,1271.570557 2151.564697,1214.195679 
	C2182.634521,1129.616699 2199.304932,1042.089600 2203.477539,952.253784 
	C2204.725098,925.390930 2203.402588,898.348755 2202.098877,871.444946 
	C2200.927002,847.263245 2198.165039,823.158569 2195.854736,797.252563 
z"/>
<path fill="#EE649C" opacity="1.000000" stroke="none" 
	d="
M2195.979492,798.136230 
	C2198.165039,823.158569 2200.927002,847.263245 2202.098877,871.444946 
	C2203.402588,898.348755 2204.725098,925.390930 2203.477539,952.253784 
	C2199.304932,1042.089600 2182.634521,1129.616699 2151.564697,1214.195679 
	C2130.488281,1271.570557 2103.612793,1326.095337 2070.985107,1377.794678 
	C2045.527344,1418.133301 2016.935303,1456.093262 1985.165527,1491.666992 
	C1928.685425,1554.909790 1864.478638,1608.905151 1792.208984,1653.324829 
	C1739.835205,1685.515503 1684.739990,1711.841309 1626.745117,1732.316162 
	C1579.900757,1748.854492 1531.930542,1760.759277 1483.130615,1769.589600 
	C1475.956177,1770.887817 1468.686523,1771.659302 1460.710327,1772.780029 
	C1460.384521,1775.393311 1459.796265,1777.916626 1459.794922,1780.440308 
	C1459.747437,1870.435547 1459.730835,1960.430786 1459.784912,2050.426025 
	C1459.791870,2061.881348 1462.341919,2064.220459 1474.221924,2064.223145 
	C1573.883301,2064.247314 1673.544556,2064.236084 1773.205933,2064.237793 
	C1790.560791,2064.238281 1792.244873,2065.871582 1792.246216,2082.791748 
	C1792.251465,2151.121338 1792.248779,2219.451172 1792.246338,2287.780762 
	C1792.246338,2290.113770 1792.377319,2292.460938 1792.170898,2294.777100 
	C1791.592407,2301.272705 1787.824707,2305.138184 1781.456543,2305.700684 
	C1778.809937,2305.934326 1776.126953,2305.761475 1773.460449,2305.761475 
	C1675.132324,2305.762695 1576.804199,2305.762451 1478.476074,2305.764648 
	C1475.476440,2305.764893 1472.459351,2305.589355 1469.480957,2305.848877 
	C1463.647583,2306.357178 1460.542114,2309.414062 1459.908691,2315.328857 
	C1459.590820,2318.297119 1459.758667,2321.320801 1459.758545,2324.319336 
	C1459.753174,2422.647461 1459.754272,2520.975586 1459.753662,2619.303711 
	C1459.753662,2621.970215 1459.888428,2624.646240 1459.712036,2627.301270 
	C1459.303955,2633.446533 1455.900757,2637.041260 1449.826782,2637.690674 
	C1447.518799,2637.937500 1445.164673,2637.760986 1442.831543,2637.760986 
	C1373.501953,2637.763184 1304.172241,2637.767334 1234.842651,2637.758789 
	C1220.820557,2637.757080 1218.255981,2635.143066 1218.253784,2620.663818 
	C1218.238647,2521.335693 1218.246216,2422.007812 1218.244141,2322.679688 
	C1218.244141,2320.013184 1218.418823,2317.327393 1218.163086,2314.684326 
	C1217.606567,2308.936035 1215.070435,2306.398438 1209.329468,2305.844727 
	C1206.686279,2305.589844 1204.000732,2305.764404 1201.334351,2305.764404 
	C1103.672852,2305.762451 1006.011414,2305.762695 908.349915,2305.762695 
	C906.350037,2305.762695 904.349976,2305.776611 902.350220,2305.759766 
	C889.629150,2305.653564 886.279968,2302.454834 886.264587,2289.918213 
	C886.215088,2249.586914 886.245972,2209.255859 886.245972,2168.924561 
	C886.245972,2138.926270 886.215881,2108.927734 886.261353,2078.929443 
	C886.279236,2067.127197 889.156860,2064.254150 901.021606,2064.251465 
	C1001.016296,2064.227051 1101.011230,2064.136475 1201.005371,2064.335938 
	C1217.789551,2064.369385 1218.366943,2061.390381 1218.335815,2046.602173 
	C1218.152832,1959.607300 1218.245850,1872.611694 1218.245850,1785.616333 
	C1218.245850,1781.666138 1218.245972,1777.716064 1218.245972,1773.272827 
	C1204.583740,1770.850952 1191.579224,1768.611572 1178.600220,1766.233643 
	C1117.846802,1755.103271 1059.110596,1737.191650 1002.247498,1713.184204 
	C950.886597,1691.499756 902.025757,1665.089233 855.882324,1633.790894 
	C825.842346,1613.415405 796.816040,1591.662842 769.888489,1567.239868 
	C756.832703,1555.398315 743.416077,1543.906738 730.966736,1531.453125 
	C694.198669,1494.672363 660.702942,1455.121826 630.789185,1412.493286 
	C601.820435,1371.211304 576.654846,1327.775391 555.346008,1282.137329 
	C529.369446,1226.502319 509.526489,1168.698975 496.097534,1108.749268 
	C488.687866,1075.670776 482.505310,1042.366699 479.795715,1008.534729 
	C478.126190,987.688965 477.008484,966.797668 475.769684,945.919250 
	C475.120819,934.983948 474.036377,924.010376 474.377014,913.092346 
	C475.463898,878.255188 477.155212,843.483521 481.467407,808.806458 
	C490.965485,732.425903 510.590027,658.841919 539.837769,587.738037 
	C566.180908,523.695557 600.158142,463.968536 640.827881,407.945404 
	C672.822205,363.872833 709.183777,323.696045 748.548950,286.213043 
	C778.228577,257.952362 810.190979,232.415680 843.674438,208.764374 
	C886.498047,178.515579 931.766663,152.483185 979.341858,130.563263 
	C1020.484497,111.607071 1062.922974,96.034897 1106.577881,83.763298 
	C1142.461182,73.676315 1178.846924,65.868729 1215.692017,60.670380 
	C1240.310913,57.197002 1265.213501,55.409081 1290.052246,53.915634 
	C1311.932129,52.600082 1333.899170,52.348549 1355.828491,52.328690 
	C1388.408447,52.299179 1420.766846,55.475239 1453.099976,59.481117 
	C1486.800049,63.656353 1520.067627,69.957008 1552.894897,78.355019 
	C1601.637451,90.824615 1648.989502,107.367020 1694.910034,128.112396 
	C1739.642334,148.320953 1782.316772,172.107407 1822.963257,199.526489 
	C1854.165161,220.574402 1884.359131,243.059769 1911.897461,268.759583 
	C1934.768555,290.103821 1957.656250,311.575134 1978.833374,334.559448 
	C2025.240479,384.927002 2064.628662,440.476013 2097.621338,500.598389 
	C2124.616943,549.792480 2146.768555,601.017517 2163.636475,654.470459 
	C2177.454590,698.258789 2188.193604,742.828064 2194.318115,788.417603 
	C2194.715820,791.377991 2195.337402,794.308228 2195.979492,798.136230 
M1768.249634,464.819092 
	C1757.413452,454.975311 1746.987793,444.629944 1735.673706,435.370117 
	C1668.073730,380.044922 1592.378174,340.060089 1508.242310,316.223938 
	C1467.192261,304.594208 1425.327881,296.996704 1382.827271,294.589813 
	C1350.316528,292.748596 1317.660034,292.635223 1285.050171,295.585114 
	C1255.544800,298.254120 1226.380005,302.623932 1197.556274,309.303619 
	C1134.165283,323.993927 1074.686157,348.382935 1018.856201,381.760559 
	C958.855469,417.631714 906.591431,462.664368 861.642639,516.039185 
	C821.954224,563.167664 790.144714,615.242188 765.766968,671.950378 
	C736.559998,739.892700 720.545166,810.866943 716.548462,884.465820 
	C715.182129,909.626221 716.338562,935.030762 717.987000,960.216125 
	C719.501648,983.355835 722.269043,1006.514771 726.175598,1029.376221 
	C734.902161,1080.444214 750.860352,1129.408569 772.431519,1176.483032 
	C800.393188,1237.503540 837.550598,1292.494507 883.184875,1341.621460 
	C908.588379,1368.969238 936.408508,1393.815430 966.388550,1416.131104 
	C1024.876465,1459.666504 1088.945557,1492.130249 1158.715576,1513.485718 
	C1207.595093,1528.446777 1257.646973,1536.744141 1308.515137,1539.444946 
	C1332.349487,1540.710449 1356.355835,1538.815552 1380.281860,1538.251709 
	C1407.604248,1537.607666 1434.475952,1533.242065 1461.219849,1528.030518 
	C1507.110596,1519.087769 1551.412842,1504.999390 1594.002319,1485.761230 
	C1639.692627,1465.122314 1682.471436,1439.565430 1722.034668,1408.662354 
	C1756.791626,1381.513794 1788.581909,1351.234619 1816.797729,1317.411987 
	C1856.905640,1269.334229 1889.438232,1216.543701 1913.927734,1158.753174 
	C1941.042358,1094.768311 1956.796509,1028.075684 1961.409912,958.955322 
	C1963.488525,927.813477 1963.320190,896.465332 1960.486206,865.176086 
	C1958.265503,840.656311 1955.064087,816.370178 1950.250610,792.246399 
	C1936.577026,723.716492 1911.543945,659.563782 1876.124634,599.417114 
	C1856.648193,566.343811 1834.226562,535.325928 1808.847534,506.566223 
	C1796.325928,492.376404 1782.562866,479.282013 1768.249634,464.819092 
z"/>
<path fill="#FFFFFF" opacity="1.000000" stroke="none" 
	d="
M1768.805664,465.255493 
	C1782.562866,479.282013 1796.325928,492.376404 1808.847534,506.566223 
	C1834.226562,535.325928 1856.648193,566.343811 1876.124634,599.417114 
	C1911.543945,659.563782 1936.577026,723.716492 1950.250610,792.246399 
	C1955.064087,816.370178 1958.265503,840.656311 1960.486206,865.176086 
	C1963.320190,896.465332 1963.488525,927.813477 1961.409912,958.955322 
	C1956.796509,1028.075684 1941.042358,1094.768311 1913.927734,1158.753174 
	C1889.438232,1216.543701 1856.905640,1269.334229 1816.797729,1317.411987 
	C1788.581909,1351.234619 1756.791626,1381.513794 1722.034668,1408.662354 
	C1682.471436,1439.565430 1639.692627,1465.122314 1594.002319,1485.761230 
	C1551.412842,1504.999390 1507.110596,1519.087769 1461.219849,1528.030518 
	C1434.475952,1533.242065 1407.604248,1537.607666 1380.281860,1538.251709 
	C1356.355835,1538.815552 1332.349487,1540.710449 1308.515137,1539.444946 
	C1257.646973,1536.744141 1207.595093,1528.446777 1158.715576,1513.485718 
	C1088.945557,1492.130249 1024.876465,1459.666504 966.388550,1416.131104 
	C936.408508,1393.815430 908.588379,1368.969238 883.184875,1341.621460 
	C837.550598,1292.494507 800.393188,1237.503540 772.431519,1176.483032 
	C750.860352,1129.408569 734.902161,1080.444214 726.175598,1029.376221 
	C722.269043,1006.514771 719.501648,983.355835 717.987000,960.216125 
	C716.338562,935.030762 715.182129,909.626221 716.548462,884.465820 
	C720.545166,810.866943 736.559998,739.892700 765.766968,671.950378 
	C790.144714,615.242188 821.954224,563.167664 861.642639,516.039185 
	C906.591431,462.664368 958.855469,417.631714 1018.856201,381.760559 
	C1074.686157,348.382935 1134.165283,323.993927 1197.556274,309.303619 
	C1226.380005,302.623932 1255.544800,298.254120 1285.050171,295.585114 
	C1317.660034,292.635223 1350.316528,292.748596 1382.827271,294.589813 
	C1425.327881,296.996704 1467.192261,304.594208 1508.242310,316.223938 
	C1592.378174,340.060089 1668.073730,380.044922 1735.673706,435.370117 
	C1746.987793,444.629944 1757.413452,454.975311 1768.805664,465.255493 
z"/>
</svg>