<svg version="1.1" id="Layer_1" xmlns="http://www.w3.org/2000/svg" xmlns:xlink="http://www.w3.org/1999/xlink" x="0px" y="0px"
	 width="100%" viewBox="0 0 3575 3004" enable-background="new 0 0 3575 3004" xml:space="preserve">
<path fill="none" opacity="1.000000" stroke="none" 
	d="
M2192.000000,3006.000000 
	C1461.333496,3006.000000 731.667114,3006.000000 2.000489,3006.000000 
	C2.000326,2004.667236 2.000326,1003.334351 2.000163,2.001161 
	C1193.999146,2.000774 2385.998291,2.000774 3577.998047,2.000387 
	C3577.998535,1003.332214 3577.998535,2004.664429 3577.999268,3005.998291 
	C3116.333252,3006.000000 2654.666748,3006.000000 2192.000000,3006.000000 
M2250.254883,449.805695 
	C2047.638306,439.147614 1863.338989,492.213440 1696.131958,608.091675 
	C1695.129517,607.220520 1694.038696,606.431824 1693.137573,605.466187 
	C1663.738159,573.960938 1631.531860,545.520874 1597.463257,519.249512 
	C1512.420044,453.670288 1418.448120,405.379486 1315.459473,374.711365 
	C1251.737305,355.736115 1186.627686,344.098999 1120.336304,340.646973 
	C1074.812378,338.276398 1029.169800,338.554443 983.632812,343.516571 
	C952.182800,346.943665 920.966980,351.444672 890.058838,358.031769 
	C790.055054,379.344482 696.785828,417.305969 610.325867,471.894165 
	C544.886780,513.210388 485.907135,562.299072 433.523224,619.305542 
	C402.349396,653.230286 373.909973,689.304260 348.488617,727.707092 
	C311.199188,784.038574 280.651337,843.831177 257.486511,907.337463 
	C239.887695,955.584778 226.364304,1004.921082 217.792969,1055.593994 
	C213.076523,1083.477173 208.915695,1111.414429 207.657745,1139.710815 
	C206.638123,1162.645996 204.397171,1185.599731 204.808670,1208.507324 
	C205.315918,1236.745361 207.618835,1264.975098 209.855408,1293.152100 
	C212.940140,1332.014404 220.095764,1370.259644 229.306030,1408.099731 
	C247.598389,1483.253174 275.389069,1554.718994 313.029388,1622.335571 
	C358.289581,1703.640137 414.970856,1775.902710 483.442261,1838.979004 
	C549.133667,1899.494751 622.252991,1948.844604 703.153687,1986.690674 
	C775.034424,2020.317383 850.030518,2043.822998 928.441345,2056.316895 
	C934.909241,2057.347412 941.317688,2058.751221 948.499451,2060.124268 
	C948.499451,2064.208984 948.499512,2067.483154 948.499451,2070.757324 
	C948.499268,2159.078125 948.500427,2247.399170 948.491760,2335.719971 
	C948.491516,2338.384521 948.568481,2341.067627 948.294556,2343.709473 
	C947.817993,2348.305420 944.924072,2350.912109 940.537964,2351.546875 
	C937.595154,2351.972656 934.553894,2351.761230 931.556702,2351.761719 
	C860.233459,2351.769775 788.910156,2351.767090 717.586914,2351.768311 
	C688.257751,2351.768555 658.928284,2351.707764 629.599487,2351.813965 
	C620.482239,2351.847168 617.043152,2355.312500 616.434204,2364.349121 
	C616.300049,2366.340332 616.399231,2368.347412 616.399170,2370.347168 
	C616.398315,2438.004150 616.397522,2505.661377 616.402344,2573.318359 
	C616.402527,2575.984131 616.215271,2578.679443 616.534607,2581.310059 
	C617.419189,2588.598145 620.925598,2591.737305 628.360474,2592.098633 
	C631.020691,2592.228027 633.692078,2592.133057 636.358337,2592.133057 
	C734.344482,2592.133789 832.330627,2592.132080 930.316772,2592.135254 
	C947.860596,2592.135986 948.496948,2592.757812 948.497620,2609.944824 
	C948.501526,2708.930908 948.487793,2807.916748 948.512878,2906.902832 
	C948.516663,2921.707031 951.117920,2924.226807 965.966187,2924.228516 
	C1030.623779,2924.236328 1095.281250,2924.232178 1159.938843,2924.231689 
	C1165.937988,2924.231689 1171.942505,2924.386719 1177.934937,2924.184082 
	C1186.134277,2923.906982 1189.270630,2920.744141 1189.712280,2912.627686 
	C1189.856812,2909.968994 1189.745361,2907.296387 1189.745361,2904.630127 
	C1189.745972,2806.644043 1189.745605,2708.657715 1189.746948,2610.671631 
	C1189.746948,2608.005371 1189.622925,2605.330078 1189.799438,2602.674805 
	C1190.283569,2595.393066 1193.047241,2592.630859 1200.332031,2592.185791 
	C1203.320801,2592.003174 1206.329346,2592.134766 1209.328857,2592.134766 
	C1307.314941,2592.133545 1405.301147,2592.134521 1503.287231,2592.129883 
	C1506.286011,2592.129883 1509.313843,2592.330078 1512.277466,2591.992432 
	C1518.143799,2591.323486 1521.113281,2588.239014 1521.751953,2582.274170 
	C1522.034424,2579.636230 1521.861816,2576.947021 1521.861938,2574.281250 
	C1521.865601,2505.957520 1521.869629,2437.634033 1521.861450,2369.310303 
	C1521.859497,2353.075439 1520.536865,2351.772705 1504.100220,2351.771729 
	C1405.447510,2351.765869 1306.794678,2351.768555 1208.141968,2351.766846 
	C1205.475708,2351.766602 1202.794800,2351.928223 1200.146240,2351.707275 
	C1193.561157,2351.158447 1190.487793,2348.200195 1189.830444,2341.798584 
	C1189.593140,2339.488525 1189.748413,2337.136475 1189.748291,2334.803711 
	C1189.745850,2246.816162 1189.746094,2158.828613 1189.745972,2070.841064 
	C1189.745850,2067.555420 1189.745972,2064.269775 1189.745972,2060.640869 
	C1192.877075,2059.716309 1195.320923,2058.744873 1197.857544,2058.286865 
	C1213.230713,2055.512939 1228.695068,2053.201904 1244.001099,2050.103760 
	C1338.197998,2031.036987 1426.604126,1996.798218 1509.159546,1947.670044 
	C1530.607788,1934.906250 1551.232300,1920.758179 1573.339355,1908.094849 
	C1597.374878,1930.644409 1620.430664,1954.359253 1645.621460,1975.534424 
	C1736.786987,2052.166992 1839.724487,2107.339600 1954.026855,2141.057373 
	C2031.079712,2163.786621 2109.749756,2176.042480 2190.143311,2176.142578 
	C2214.761230,2176.173096 2239.380615,2174.798584 2264.673584,2174.782227 
	C2265.781006,2174.476807 2266.888672,2174.171387 2269.689209,2173.806396 
	C2300.343018,2169.678955 2331.241943,2166.858643 2361.604248,2161.174316 
	C2446.598877,2145.261475 2527.406494,2116.941895 2603.859863,2076.321045 
	C2686.070557,2032.641113 2759.246338,1977.136475 2823.675293,1909.953125 
	C2894.281982,1836.328125 2950.136475,1752.881592 2991.155273,1659.521851 
	C3036.581543,1556.130615 3059.966064,1447.776489 3063.640381,1335.044922 
	C3065.019287,1292.730957 3062.785400,1250.503052 3057.376953,1208.605347 
	C3053.293945,1176.978760 3047.792236,1145.398438 3040.604492,1114.333618 
	C3013.976074,999.242798 2965.249756,894.162842 2894.947754,799.149841 
	C2893.225342,796.821960 2891.809326,794.267700 2890.232422,791.790527 
	C2891.762207,790.109375 2892.827881,788.837280 2893.996582,787.668457 
	C2986.842529,694.806213 3079.695801,601.951965 3172.552246,509.100281 
	C3173.729980,507.922455 3174.840088,506.637329 3176.169922,505.657959 
	C3183.228271,500.459900 3191.273682,503.934845 3192.135498,512.586670 
	C3192.398682,515.228088 3192.218262,517.915161 3192.218262,520.581299 
	C3192.221436,580.573059 3192.203369,640.564819 3192.236816,700.556580 
	C3192.243408,712.316406 3195.129883,715.734131 3205.580811,715.744629 
	C3276.904297,715.816528 3348.228027,715.814758 3419.551514,715.749207 
	C3429.836182,715.739746 3432.248047,713.107910 3432.338623,702.469788 
	C3432.440918,690.472290 3432.364502,678.473267 3432.364746,666.474915 
	C3432.364746,476.167725 3432.367188,285.860535 3432.360107,95.553322 
	C3432.359619,80.800438 3431.039062,79.494095 3416.441895,79.429230 
	C3416.108643,79.427750 3415.775391,79.428551 3415.442139,79.428543 
	C3214.802979,79.428299 3014.163818,79.427635 2813.524658,79.432594 
	C2810.859375,79.432655 2808.171875,79.298317 2805.533203,79.583626 
	C2799.454834,80.240814 2796.790039,83.004059 2796.165771,89.202576 
	C2795.932861,91.513885 2796.069580,93.864319 2796.069336,96.196907 
	C2796.065918,164.854141 2796.065186,233.511368 2796.071045,302.168610 
	C2796.071289,304.833740 2795.897461,307.530273 2796.233643,310.157318 
	C2796.892334,315.309967 2800.095459,318.681763 2805.209473,319.423187 
	C2808.152344,319.849854 2811.194824,319.633942 2814.192383,319.634369 
	C2873.184326,319.643036 2932.176025,319.639160 2991.167969,319.646515 
	C2994.166260,319.646881 2997.207031,319.420166 3000.154785,319.827118 
	C3007.792480,320.881409 3011.023193,328.338684 3006.678711,334.745758 
	C3005.571777,336.378418 3004.007324,337.712097 3002.594727,339.124817 
	C2910.217773,431.512756 2817.837646,523.898071 2725.429932,616.255432 
	C2723.605225,618.079224 2721.449707,619.572388 2719.246338,621.386536 
	C2715.559326,618.760010 2712.296631,616.481018 2709.080566,614.137512 
	C2655.545654,575.129639 2598.394531,542.497742 2537.390625,516.636841 
	C2475.512695,490.405365 2411.488281,471.291016 2345.171631,460.551514 
	C2315.653564,455.771240 2285.723389,453.535461 2255.332031,449.474243 
	C2254.219727,449.637604 2253.107178,449.800995 2250.254883,449.805695 
M3211.113281,1001.482849 
	C3212.072021,1002.696167 3213.030762,1003.909546 3213.989502,1005.122925 
	C3214.598633,1004.535034 3215.207764,1003.947144 3215.816895,1003.359192 
	C3214.583252,1002.474792 3213.349609,1001.590332 3211.113281,1001.482849 
z"/>
<path fill="#EE649C" opacity="1.000000" stroke="none" 
	d="
M1572.235107,1907.245972 
	C1551.232300,1920.758179 1530.607788,1934.906250 1509.159546,1947.670044 
	C1426.604126,1996.798218 1338.197998,2031.036987 1244.001099,2050.103760 
	C1228.695068,2053.201904 1213.230713,2055.512939 1197.857544,2058.286865 
	C1195.320923,2058.744873 1192.877075,2059.716309 1189.745972,2060.640869 
	C1189.745972,2064.269775 1189.745850,2067.555420 1189.745972,2070.841064 
	C1189.746094,2158.828613 1189.745850,2246.816162 1189.748291,2334.803711 
	C1189.748413,2337.136475 1189.593140,2339.488525 1189.830444,2341.798584 
	C1190.487793,2348.200195 1193.561157,2351.158447 1200.146240,2351.707275 
	C1202.794800,2351.928223 1205.475708,2351.766602 1208.141968,2351.766846 
	C1306.794678,2351.768555 1405.447510,2351.765869 1504.100220,2351.771729 
	C1520.536865,2351.772705 1521.859497,2353.075439 1521.861450,2369.310303 
	C1521.869629,2437.634033 1521.865601,2505.957520 1521.861938,2574.281250 
	C1521.861816,2576.947021 1522.034424,2579.636230 1521.751953,2582.274170 
	C1521.113281,2588.239014 1518.143799,2591.323486 1512.277466,2591.992432 
	C1509.313843,2592.330078 1506.286011,2592.129883 1503.287231,2592.129883 
	C1405.301147,2592.134521 1307.314941,2592.133545 1209.328857,2592.134766 
	C1206.329346,2592.134766 1203.320801,2592.003174 1200.332031,2592.185791 
	C1193.047241,2592.630859 1190.283569,2595.393066 1189.799438,2602.674805 
	C1189.622925,2605.330078 1189.746948,2608.005371 1189.746948,2610.671631 
	C1189.745605,2708.657715 1189.745972,2806.644043 1189.745361,2904.630127 
	C1189.745361,2907.296387 1189.856812,2909.968994 1189.712280,2912.627686 
	C1189.270630,2920.744141 1186.134277,2923.906982 1177.934937,2924.184082 
	C1171.942505,2924.386719 1165.937988,2924.231689 1159.938843,2924.231689 
	C1095.281250,2924.232178 1030.623779,2924.236328 965.966187,2924.228516 
	C951.117920,2924.226807 948.516663,2921.707031 948.512878,2906.902832 
	C948.487793,2807.916748 948.501526,2708.930908 948.497620,2609.944824 
	C948.496948,2592.757812 947.860596,2592.135986 930.316772,2592.135254 
	C832.330627,2592.132080 734.344482,2592.133789 636.358337,2592.133057 
	C633.692078,2592.133057 631.020691,2592.228027 628.360474,2592.098633 
	C620.925598,2591.737305 617.419189,2588.598145 616.534607,2581.310059 
	C616.215271,2578.679443 616.402527,2575.984131 616.402344,2573.318359 
	C616.397522,2505.661377 616.398315,2438.004150 616.399170,2370.347168 
	C616.399231,2368.347412 616.300049,2366.340332 616.434204,2364.349121 
	C617.043152,2355.312500 620.482239,2351.847168 629.599487,2351.813965 
	C658.928284,2351.707764 688.257751,2351.768555 717.586914,2351.768311 
	C788.910156,2351.767090 860.233459,2351.769775 931.556702,2351.761719 
	C934.553894,2351.761230 937.595154,2351.972656 940.537964,2351.546875 
	C944.924072,2350.912109 947.817993,2348.305420 948.294556,2343.709473 
	C948.568481,2341.067627 948.491516,2338.384521 948.491760,2335.719971 
	C948.500427,2247.399170 948.499268,2159.078125 948.499451,2070.757324 
	C948.499512,2067.483154 948.499451,2064.208984 948.499451,2060.124268 
	C941.317688,2058.751221 934.909241,2057.347412 928.441345,2056.316895 
	C850.030518,2043.822998 775.034424,2020.317383 703.153687,1986.690674 
	C622.252991,1948.844604 549.133667,1899.494751 483.442261,1838.979004 
	C414.970856,1775.902710 358.289581,1703.640137 313.029388,1622.335571 
	C275.389069,1554.718994 247.598389,1483.253174 229.306030,1408.099731 
	C220.095764,1370.259644 212.940140,1332.014404 209.855408,1293.152100 
	C207.618835,1264.975098 205.315918,1236.745361 204.808670,1208.507324 
	C204.397171,1185.599731 206.638123,1162.645996 207.657745,1139.710815 
	C208.915695,1111.414429 213.076523,1083.477173 217.792969,1055.593994 
	C226.364304,1004.921082 239.887695,955.584778 257.486511,907.337463 
	C280.651337,843.831177 311.199188,784.038574 348.488617,727.707092 
	C373.909973,689.304260 402.349396,653.230286 433.523224,619.305542 
	C485.907135,562.299072 544.886780,513.210388 610.325867,471.894165 
	C696.785828,417.305969 790.055054,379.344482 890.058838,358.031769 
	C920.966980,351.444672 952.182800,346.943665 983.632812,343.516571 
	C1029.169800,338.554443 1074.812378,338.276398 1120.336304,340.646973 
	C1186.627686,344.098999 1251.737305,355.736115 1315.459473,374.711365 
	C1418.448120,405.379486 1512.420044,453.670288 1597.463257,519.249512 
	C1631.531860,545.520874 1663.738159,573.960938 1693.137573,605.466187 
	C1694.038696,606.431824 1695.129517,607.220520 1697.005371,609.026855 
	C1698.541626,611.337830 1699.204346,612.713623 1699.907349,614.173096 
	C1688.041016,618.870422 1677.899780,624.841431 1669.124512,633.188843 
	C1666.050659,636.112793 1662.033325,638.043091 1658.454590,640.438904 
	C1654.043457,643.391785 1649.351929,646.007324 1645.278931,649.370911 
	C1606.694092,681.234680 1571.600464,716.633606 1539.158936,754.697021 
	C1533.564087,761.261292 1527.935791,767.796997 1521.773926,773.908813 
	C1513.865845,766.236816 1506.584839,758.920410 1499.135010,751.780090 
	C1449.380005,704.092773 1393.121704,665.994934 1330.593140,637.005310 
	C1257.512573,603.123474 1180.619629,584.666565 1100.369019,580.429871 
	C1067.456909,578.692322 1034.523682,579.978821 1001.638489,583.507690 
	C961.448364,587.820435 922.085632,595.772766 883.623474,607.935608 
	C755.067932,648.588623 650.068604,723.043091 569.271790,830.737305 
	C494.546906,930.338196 454.146576,1043.102417 446.447784,1167.308472 
	C444.056732,1205.883911 445.224762,1244.572632 450.373322,1282.976196 
	C456.625793,1329.613770 467.468170,1375.142212 483.865112,1419.332642 
	C520.784790,1518.832886 579.331665,1603.491089 658.983765,1673.382446 
	C728.115234,1734.042480 807.131409,1777.076294 895.492249,1802.805054 
	C939.736389,1815.687988 984.874512,1823.518921 1030.879517,1826.037231 
	C1053.132324,1827.255249 1075.342163,1827.902588 1097.723633,1826.644043 
	C1129.695435,1824.846069 1161.391968,1821.467407 1192.716553,1815.188232 
	C1256.848267,1802.332642 1317.683228,1780.157715 1374.443970,1747.572510 
	C1394.308228,1736.168945 1413.022461,1722.762085 1432.924561,1710.096680 
	C1498.203125,1663.768555 1551.611206,1606.949463 1594.647461,1540.322144 
	C1600.039062,1531.975098 1604.617310,1523.102539 1610.008301,1514.052979 
	C1611.355225,1512.248779 1612.354736,1510.914673 1613.164551,1509.473999 
	C1637.917969,1465.441040 1656.999390,1419.068970 1670.617798,1370.427612 
	C1681.684326,1330.901489 1688.574951,1290.597168 1691.504272,1249.736938 
	C1693.046997,1228.216919 1692.761719,1206.507935 1692.203125,1184.912720 
	C1691.713745,1165.991821 1690.114868,1147.068604 1688.257202,1128.220337 
	C1683.962524,1084.646484 1673.580688,1042.396240 1659.599243,1000.346802 
	C1660.112793,998.758057 1660.390503,997.777649 1660.891602,996.929321 
	C1696.058350,937.387878 1739.705322,884.867981 1792.137085,839.805603 
	C1806.224243,827.698486 1821.500122,816.974365 1836.687500,806.141113 
	C1856.149902,843.360718 1872.681030,881.135681 1886.148438,920.205933 
	C1905.487549,976.310791 1919.122192,1033.730835 1926.490112,1092.692261 
	C1930.867188,1127.719604 1933.828979,1162.817749 1933.561035,1198.069946 
	C1933.359253,1224.644165 1932.353271,1251.289551 1929.984009,1277.749146 
	C1927.439453,1306.166626 1923.902954,1334.582275 1918.982422,1362.680542 
	C1910.189575,1412.891846 1896.008179,1461.727417 1877.976807,1509.432129 
	C1852.067383,1577.979370 1817.992798,1642.171265 1775.533081,1701.898682 
	C1766.094604,1715.175659 1756.482178,1728.328735 1746.367554,1741.808350 
	C1744.840454,1742.995605 1743.785034,1743.824585 1742.966797,1744.843994 
	C1703.266968,1794.301636 1658.698975,1838.880005 1609.070190,1878.375122 
	C1596.863892,1888.089355 1584.517212,1897.627197 1572.235107,1907.245972 
z"/>
<path fill="#39BAED" opacity="1.000000" stroke="none" 
	d="
M1609.572510,1514.473511 
	C1604.617310,1523.102539 1600.039062,1531.975098 1594.647461,1540.322144 
	C1551.611206,1606.949463 1498.203125,1663.768555 1432.616699,1709.434814 
	C1412.856934,1672.911377 1396.847168,1635.671509 1383.670776,1597.237427 
	C1363.179199,1537.466187 1347.825317,1476.457153 1341.829346,1413.428101 
	C1339.030396,1384.004761 1337.530884,1354.446533 1335.970337,1324.921631 
	C1335.286621,1311.983276 1335.924438,1298.975098 1336.322144,1285.674438 
	C1336.469971,1284.232666 1336.257690,1283.115112 1336.077393,1281.086060 
	C1338.225708,1253.970215 1340.234985,1227.756470 1342.510498,1201.565918 
	C1343.430176,1190.982300 1344.384888,1180.348877 1346.300537,1169.917480 
	C1348.935669,1155.567017 1352.551636,1141.398438 1355.654419,1127.131714 
	C1380.025879,1015.072083 1424.995239,911.997498 1490.647827,817.979065 
	C1500.935913,803.245911 1511.751343,788.881042 1522.322998,774.345886 
	C1527.935791,767.796997 1533.564087,761.261292 1539.158936,754.697021 
	C1571.600464,716.633606 1606.694092,681.234680 1645.278931,649.370911 
	C1649.351929,646.007324 1654.043457,643.391785 1658.454590,640.438904 
	C1662.033325,638.043091 1666.050659,636.112793 1669.124512,633.188843 
	C1677.899780,624.841431 1688.041016,618.870422 1699.907349,614.173096 
	C1699.204346,612.713623 1698.541626,611.337830 1697.582275,609.358887 
	C1863.338989,492.213440 2047.638306,439.147614 2251.421875,450.302795 
	C2253.719482,450.581512 2254.849854,450.363190 2255.980225,450.144836 
	C2285.723389,453.535461 2315.653564,455.771240 2345.171631,460.551514 
	C2411.488281,471.291016 2475.512695,490.405365 2537.390625,516.636841 
	C2598.394531,542.497742 2655.545654,575.129639 2709.080566,614.137512 
	C2712.296631,616.481018 2715.559326,618.760010 2719.246338,621.386536 
	C2721.449707,619.572388 2723.605225,618.079224 2725.429932,616.255432 
	C2817.837646,523.898071 2910.217773,431.512756 3002.594727,339.124817 
	C3004.007324,337.712097 3005.571777,336.378418 3006.678711,334.745758 
	C3011.023193,328.338684 3007.792480,320.881409 3000.154785,319.827118 
	C2997.207031,319.420166 2994.166260,319.646881 2991.167969,319.646515 
	C2932.176025,319.639160 2873.184326,319.643036 2814.192383,319.634369 
	C2811.194824,319.633942 2808.152344,319.849854 2805.209473,319.423187 
	C2800.095459,318.681763 2796.892334,315.309967 2796.233643,310.157318 
	C2795.897461,307.530273 2796.071289,304.833740 2796.071045,302.168610 
	C2796.065186,233.511368 2796.065918,164.854141 2796.069336,96.196907 
	C2796.069580,93.864319 2795.932861,91.513885 2796.165771,89.202576 
	C2796.790039,83.004059 2799.454834,80.240814 2805.533203,79.583626 
	C2808.171875,79.298317 2810.859375,79.432655 2813.524658,79.432594 
	C3014.163818,79.427635 3214.802979,79.428299 3415.442139,79.428543 
	C3415.775391,79.428551 3416.108643,79.427750 3416.441895,79.429230 
	C3431.039062,79.494095 3432.359619,80.800438 3432.360107,95.553322 
	C3432.367188,285.860535 3432.364746,476.167725 3432.364746,666.474915 
	C3432.364502,678.473267 3432.440918,690.472290 3432.338623,702.469788 
	C3432.248047,713.107910 3429.836182,715.739746 3419.551514,715.749207 
	C3348.228027,715.814758 3276.904297,715.816528 3205.580811,715.744629 
	C3195.129883,715.734131 3192.243408,712.316406 3192.236816,700.556580 
	C3192.203369,640.564819 3192.221436,580.573059 3192.218262,520.581299 
	C3192.218262,517.915161 3192.398682,515.228088 3192.135498,512.586670 
	C3191.273682,503.934845 3183.228271,500.459900 3176.169922,505.657959 
	C3174.840088,506.637329 3173.729980,507.922455 3172.552246,509.100281 
	C3079.695801,601.951965 2986.842529,694.806213 2893.996582,787.668457 
	C2892.827881,788.837280 2891.762207,790.109375 2890.232422,791.790527 
	C2891.809326,794.267700 2893.225342,796.821960 2894.947754,799.149841 
	C2965.249756,894.162842 3013.976074,999.242798 3040.604492,1114.333618 
	C3047.792236,1145.398438 3053.293945,1176.978760 3057.376953,1208.605347 
	C3062.785400,1250.503052 3065.019287,1292.730957 3063.640381,1335.044922 
	C3059.966064,1447.776489 3036.581543,1556.130615 2991.155273,1659.521851 
	C2950.136475,1752.881592 2894.281982,1836.328125 2823.675293,1909.953125 
	C2759.246338,1977.136475 2686.070557,2032.641113 2603.859863,2076.321045 
	C2527.406494,2116.941895 2446.598877,2145.261475 2361.604248,2161.174316 
	C2331.241943,2166.858643 2300.343018,2169.678955 2268.503906,2173.479980 
	C2266.212158,2173.458252 2265.105713,2173.762939 2263.999512,2174.067627 
	C2239.380615,2174.798584 2214.761230,2176.173096 2190.143311,2176.142578 
	C2109.749756,2176.042480 2031.079712,2163.786621 1954.026855,2141.057373 
	C1839.724487,2107.339600 1736.786987,2052.166992 1645.621460,1975.534424 
	C1620.430664,1954.359253 1597.374878,1930.644409 1572.787231,1907.670410 
	C1584.517212,1897.627197 1596.863892,1888.089355 1609.070190,1878.375122 
	C1658.698975,1838.880005 1703.266968,1794.301636 1742.966797,1744.843994 
	C1743.785034,1743.824585 1744.840454,1742.995605 1746.844604,1742.392090 
	C1776.320190,1772.828735 1807.524048,1799.785156 1841.461426,1823.445435 
	C1923.871216,1880.899292 2014.742554,1917.093018 2114.481689,1930.185425 
	C2136.200195,1933.036377 2158.154297,1934.088867 2180.405518,1936.385742 
	C2182.541016,1936.557617 2184.270752,1936.313599 2186.930176,1936.070068 
	C2196.572998,1936.065796 2205.286377,1936.061035 2214.417236,1936.461060 
	C2216.556152,1936.560547 2218.278076,1936.255493 2220.904785,1935.931641 
	C2229.781982,1935.383667 2237.749023,1934.751221 2245.727783,1934.343140 
	C2276.409668,1932.773315 2306.684326,1928.076050 2336.543457,1921.193115 
	C2459.342773,1892.885620 2564.515137,1833.415039 2651.604736,1742.127563 
	C2714.699951,1675.991333 2760.784180,1599.602051 2790.409912,1513.199341 
	C2804.038818,1473.450317 2813.387207,1432.704834 2818.274902,1390.989502 
	C2820.326172,1373.480225 2821.910645,1355.878784 2822.729492,1338.273682 
	C2823.486816,1321.996704 2823.508301,1305.634888 2822.823242,1289.353882 
	C2821.903076,1267.479614 2821.310059,1245.576050 2816.251953,1224.009399 
	C2813.232422,1211.133423 2812.862305,1197.653809 2810.164307,1184.681885 
	C2787.038574,1073.480591 2737.119385,975.774353 2660.538818,892.000183 
	C2583.505127,807.730469 2490.302246,748.634094 2380.951660,715.202637 
	C2338.753418,702.301331 2295.647705,694.067627 2251.750977,690.497803 
	C2222.550049,688.123169 2193.208008,686.493469 2163.911621,689.684326 
	C2137.788574,692.529480 2111.451416,694.274780 2085.633789,698.885620 
	C2018.215332,710.926147 1954.408691,733.797180 1894.903809,767.819092 
	C1874.735474,779.350281 1855.754150,792.957092 1836.230347,805.615356 
	C1821.500122,816.974365 1806.224243,827.698486 1792.137085,839.805603 
	C1739.705322,884.867981 1696.058350,937.387878 1660.891602,996.929321 
	C1660.390503,997.777649 1660.112793,998.758057 1659.072754,1000.825867 
	C1655.559570,1006.857788 1652.533081,1011.649414 1649.875366,1016.637390 
	C1614.656372,1082.736206 1591.094971,1152.646973 1581.600586,1227.075317 
	C1579.412109,1244.231689 1577.208496,1261.452759 1576.418457,1278.708618 
	C1573.987671,1331.793701 1577.073242,1384.552734 1587.980713,1436.697388 
	C1593.500977,1463.087158 1599.772461,1489.270752 1609.572510,1514.473511 
z"/>
<path fill="#9ADBF6" opacity="1.000000" stroke="none" 
	d="
M3211.614746,1001.094360 
	C3213.349609,1001.590332 3214.583252,1002.474792 3215.816895,1003.359192 
	C3215.207764,1003.947144 3214.598633,1004.535034 3213.989502,1005.122925 
	C3213.030762,1003.909546 3212.072021,1002.696167 3211.614746,1001.094360 
z"/>
<path fill="#77CFF2" opacity="1.000000" stroke="none" 
	d="
M2255.656250,449.809540 
	C2254.849854,450.363190 2253.719482,450.581512 2252.291992,450.382111 
	C2253.107178,449.800995 2254.219727,449.637604 2255.656250,449.809540 
z"/>
<path fill="#9ADBF6" opacity="1.000000" stroke="none" 
	d="
M2264.336426,2174.424805 
	C2265.105713,2173.762939 2266.212158,2173.458252 2267.657227,2173.509766 
	C2266.888672,2174.171387 2265.781006,2174.476807 2264.336426,2174.424805 
z"/>
<path fill="none" opacity="1.000000" stroke="none" 
	d="
M2180.000000,1935.969727 
	C2158.154297,1934.088867 2136.200195,1933.036377 2114.481689,1930.185425 
	C2014.742554,1917.093018 1923.871216,1880.899292 1841.461426,1823.445435 
	C1807.524048,1799.785156 1776.320190,1772.828735 1747.427002,1742.122559 
	C1756.482178,1728.328735 1766.094604,1715.175659 1775.533081,1701.898682 
	C1817.992798,1642.171265 1852.067383,1577.979370 1877.976807,1509.432129 
	C1896.008179,1461.727417 1910.189575,1412.891846 1918.982422,1362.680542 
	C1923.902954,1334.582275 1927.439453,1306.166626 1929.984009,1277.749146 
	C1932.353271,1251.289551 1933.359253,1224.644165 1933.561035,1198.069946 
	C1933.828979,1162.817749 1930.867188,1127.719604 1926.490112,1092.692261 
	C1919.122192,1033.730835 1905.487549,976.310791 1886.148438,920.205933 
	C1872.681030,881.135681 1856.149902,843.360718 1836.687500,806.141174 
	C1855.754150,792.957092 1874.735474,779.350281 1894.903809,767.819092 
	C1954.408691,733.797180 2018.215332,710.926147 2085.633789,698.885620 
	C2111.451416,694.274780 2137.788574,692.529480 2163.911621,689.684326 
	C2193.208008,686.493469 2222.550049,688.123169 2251.750977,690.497803 
	C2295.647705,694.067627 2338.753418,702.301331 2380.951660,715.202637 
	C2490.302246,748.634094 2583.505127,807.730469 2660.538818,892.000183 
	C2737.119385,975.774353 2787.038574,1073.480591 2810.164307,1184.681885 
	C2812.862305,1197.653809 2813.232422,1211.133423 2816.251953,1224.009399 
	C2821.310059,1245.576050 2821.903076,1267.479614 2822.823242,1289.353882 
	C2823.508301,1305.634888 2823.486816,1321.996704 2822.729492,1338.273682 
	C2821.910645,1355.878784 2820.326172,1373.480225 2818.274902,1390.989502 
	C2813.387207,1432.704834 2804.038818,1473.450317 2790.409912,1513.199341 
	C2760.784180,1599.602051 2714.699951,1675.991333 2651.604736,1742.127563 
	C2564.515137,1833.415039 2459.342773,1892.885620 2336.543457,1921.193115 
	C2306.684326,1928.076050 2276.409668,1932.773315 2245.727783,1934.343140 
	C2237.749023,1934.751221 2229.781982,1935.383667 2220.483398,1935.536133 
	C2217.438232,1935.458252 2215.718994,1935.757324 2214.000000,1936.056396 
	C2205.286377,1936.061035 2196.572998,1936.065796 2186.521240,1935.660034 
	C2183.455322,1935.489746 2181.727783,1935.729736 2180.000000,1935.969727 
z"/>
<path fill="none" opacity="1.000000" stroke="none" 
	d="
M1521.773926,773.908813 
	C1511.751343,788.881042 1500.935913,803.245911 1490.647827,817.979065 
	C1424.995239,911.997498 1380.025879,1015.072083 1355.654419,1127.131714 
	C1352.551636,1141.398438 1348.935669,1155.567017 1346.300537,1169.917480 
	C1344.384888,1180.348877 1343.430176,1190.982300 1342.510498,1201.565918 
	C1340.234985,1227.756470 1338.225708,1253.970215 1335.686279,1281.399292 
	C1335.496094,1283.748901 1335.729126,1284.873779 1335.962158,1285.998657 
	C1335.924438,1298.975098 1335.286621,1311.983276 1335.970337,1324.921631 
	C1337.530884,1354.446533 1339.030396,1384.004761 1341.829346,1413.428101 
	C1347.825317,1476.457153 1363.179199,1537.466187 1383.670776,1597.237427 
	C1396.847168,1635.671509 1412.856934,1672.911377 1431.954102,1709.608154 
	C1413.022461,1722.762085 1394.308228,1736.168945 1374.443970,1747.572510 
	C1317.683228,1780.157715 1256.848267,1802.332642 1192.716553,1815.188232 
	C1161.391968,1821.467407 1129.695435,1824.846069 1097.723633,1826.644043 
	C1075.342163,1827.902588 1053.132324,1827.255249 1030.879517,1826.037231 
	C984.874512,1823.518921 939.736389,1815.687988 895.492249,1802.805054 
	C807.131409,1777.076294 728.115234,1734.042480 658.983765,1673.382446 
	C579.331665,1603.491089 520.784790,1518.832886 483.865112,1419.332642 
	C467.468170,1375.142212 456.625793,1329.613770 450.373322,1282.976196 
	C445.224762,1244.572632 444.056732,1205.883911 446.447784,1167.308472 
	C454.146576,1043.102417 494.546906,930.338196 569.271790,830.737305 
	C650.068604,723.043091 755.067932,648.588623 883.623474,607.935608 
	C922.085632,595.772766 961.448364,587.820435 1001.638489,583.507690 
	C1034.523682,579.978821 1067.456909,578.692322 1100.369019,580.429871 
	C1180.619629,584.666565 1257.512573,603.123474 1330.593140,637.005310 
	C1393.121704,665.994934 1449.380005,704.092773 1499.135010,751.780090 
	C1506.584839,758.920410 1513.865845,766.236816 1521.773926,773.908813 
z"/>
<path fill="#FEFEFF" opacity="1.000000" stroke="none" 
	d="
M1610.008301,1514.052979 
	C1599.772461,1489.270752 1593.500977,1463.087158 1587.980713,1436.697388 
	C1577.073242,1384.552734 1573.987671,1331.793701 1576.418457,1278.708618 
	C1577.208496,1261.452759 1579.412109,1244.231689 1581.600586,1227.075317 
	C1591.094971,1152.646973 1614.656372,1082.736206 1649.875366,1016.637390 
	C1652.533081,1011.649414 1655.559570,1006.857788 1658.941040,1001.495850 
	C1673.580688,1042.396240 1683.962524,1084.646484 1688.257202,1128.220337 
	C1690.114868,1147.068604 1691.713745,1165.991821 1692.203125,1184.912720 
	C1692.761719,1206.507935 1693.046997,1228.216919 1691.504272,1249.736938 
	C1688.574951,1290.597168 1681.684326,1330.901489 1670.617798,1370.427612 
	C1656.999390,1419.068970 1637.917969,1465.441040 1613.164551,1509.473999 
	C1612.354736,1510.914673 1611.355225,1512.248779 1610.008301,1514.052979 
z"/>
<path fill="#9ADBF6" opacity="1.000000" stroke="none" 
	d="
M2180.405518,1936.385742 
	C2181.727783,1935.729736 2183.455322,1935.489746 2185.591797,1935.659668 
	C2184.270752,1936.313599 2182.541016,1936.557617 2180.405518,1936.385742 
z"/>
<path fill="#9ADBF6" opacity="1.000000" stroke="none" 
	d="
M2214.417236,1936.460938 
	C2215.718994,1935.757324 2217.438232,1935.458252 2219.578613,1935.554810 
	C2218.278076,1936.255493 2216.556152,1936.560547 2214.417236,1936.460938 
z"/>
<path fill="#A8E0F7" opacity="1.000000" stroke="none" 
	d="
M1336.322144,1285.674438 
	C1335.729126,1284.873779 1335.496094,1283.748901 1335.654297,1282.310791 
	C1336.257690,1283.115112 1336.469971,1284.232666 1336.322144,1285.674438 
z"/>
</svg>