<?xml version="1.0" standalone="no"?>
<!DOCTYPE svg PUBLIC "-//W3C//DTD SVG 20010904//EN"
 "http://www.w3.org/TR/2001/REC-SVG-20010904/DTD/svg10.dtd">
<svg version="1.0" xmlns="http://www.w3.org/2000/svg"
 width="400.000000pt" height="400.000000pt" viewBox="0 0 400.000000 400.000000"
 preserveAspectRatio="xMidYMid meet">
<metadata>
Created by potrace 1.14, written by Peter Selinger 2001-2017
</metadata>
<g transform="translate(0.000000,400.000000) scale(0.100000,-0.100000)"
fill="#000000" stroke="none">
<path d="M2359 3913 c-24 -21 -50 -45 -59 -53 -79 -74 -251 -234 -275 -255
-16 -16 -82 -76 -145 -135 -63 -59 -128 -120 -145 -135 -16 -15 -77 -70 -134
-123 -57 -54 -112 -104 -123 -114 -10 -9 -49 -45 -86 -80 -70 -65 -237 -220
-331 -307 l-55 -50 -26 19 c-117 83 -599 243 -797 265 -75 8 -120 -12 -128
-58 -4 -20 -4 -46 0 -59 14 -47 40 -108 48 -108 4 0 7 -5 7 -11 0 -16 83 -120
134 -169 84 -81 212 -160 448 -277 81 -40 149 -73 153 -73 3 0 34 -13 68 -29
34 -15 83 -36 108 -45 27 -10 65 -37 91 -64 180 -187 461 -693 568 -1022 35
-108 145 -324 223 -439 140 -207 394 -451 527 -507 43 -18 115 -24 156 -13 48
13 112 82 149 161 53 110 83 279 62 343 -14 43 -69 122 -125 180 -36 38 -196
184 -231 211 -2 2 12 16 30 31 18 15 41 35 49 43 9 8 58 53 110 100 52 47 101
92 110 100 239 223 297 278 556 529 110 106 196 183 274 244 120 94 265 159
368 166 20 2 14 43 -18 106 -16 33 -35 69 -42 80 -38 59 -143 204 -223 306
-49 64 -101 131 -115 149 -14 18 -33 42 -44 54 -10 11 -30 37 -44 56 -27 37
-389 399 -603 605 -262 251 -431 410 -439 413 -5 2 -28 -14 -51 -35z"/>
</g>
</svg>
